<?xml version="1.0" encoding="utf-8"?>
<!-- Generator: Adobe Illustrator 16.0.0, SVG Export Plug-In . SVG Version: 6.00 Build 0)  -->
<!DOCTYPE svg PUBLIC "-//W3C//DTD SVG 1.1//EN" "http://www.w3.org/Graphics/SVG/1.1/DTD/svg11.dtd">
<svg version="1.1" id="Layer_1" xmlns="http://www.w3.org/2000/svg" xmlns:xlink="http://www.w3.org/1999/xlink" x="0px" y="0px"
	 width="56px" height="56px" viewBox="0 0 56 56" enable-background="new 0 0 56 56" xml:space="preserve">
<path d="M47.857,14.488L29.771,4.047c-0.974-0.562-2.569-0.562-3.544,0L8.143,14.488c-0.976,0.562-1.773,1.944-1.773,3.07v20.883
	c0,1.125,0.798,2.508,1.773,3.07l18.084,10.441c0.976,0.562,2.57,0.562,3.544,0l18.086-10.441c0.975-0.562,1.771-1.945,1.771-3.07
	V17.559C49.629,16.433,48.832,15.051,47.857,14.488z M38,31.105h-6.896V38h-6.208v-6.895H18v-6.211h6.896V18h6.208v6.895H38V31.105z
	"/>
</svg>
