<?xml version="1.0" encoding="utf-8"?>
<!-- Generator: Adobe Illustrator 16.0.0, SVG Export Plug-In . SVG Version: 6.00 Build 0)  -->
<!DOCTYPE svg PUBLIC "-//W3C//DTD SVG 1.1//EN" "http://www.w3.org/Graphics/SVG/1.1/DTD/svg11.dtd">
<svg version="1.1" id="Layer_1" xmlns="http://www.w3.org/2000/svg" xmlns:xlink="http://www.w3.org/1999/xlink" x="0px" y="0px"
	 width="56px" height="56px" viewBox="0 0 56 56" enable-background="new 0 0 56 56" xml:space="preserve">
<path d="M47.857,14.488L29.771,4.047c-0.975-0.562-2.568-0.562-3.545,0L8.143,14.488c-0.975,0.562-1.773,1.944-1.773,3.07v20.883
	c0,1.125,0.799,2.507,1.773,3.07l18.084,10.441c0.977,0.562,2.57,0.562,3.545,0l18.086-10.441c0.975-0.563,1.771-1.945,1.771-3.07
	V17.559C49.629,16.433,48.832,15.051,47.857,14.488z M36.635,17.975c1.135,0,2.057,0.92,2.057,2.055
	c0,1.137-0.922,2.057-2.057,2.057s-2.057-0.92-2.057-2.057C34.578,18.895,35.5,17.975,36.635,17.975z M28,17.975
	c1.135,0,2.057,0.92,2.057,2.055c0,1.137-0.922,2.057-2.057,2.057s-2.057-0.92-2.057-2.057C25.943,18.895,26.865,17.975,28,17.975z
	 M19.365,17.975c1.135,0,2.057,0.92,2.057,2.055c0,1.137-0.922,2.057-2.057,2.057c-1.137,0-2.057-0.92-2.057-2.057
	C17.309,18.895,18.229,17.975,19.365,17.975z M22.797,28.732c0,0.732-0.592,1.322-1.32,1.322h-0.334
	c0.002,0.024,0.014,0.046,0.014,0.072v6.879c0,0.562-0.455,1.018-1.018,1.018h-1.547c-0.562,0-1.018-0.455-1.018-1.018v-6.879
	c0-0.026,0.012-0.048,0.014-0.072h-0.334c-0.729,0-1.32-0.59-1.32-1.322v-4.766c0-0.729,0.59-1.32,1.32-1.32h4.223
	c0.729,0,1.32,0.592,1.32,1.32V28.732z M31.43,28.732c0,0.732-0.59,1.322-1.318,1.322h-0.336c0.002,0.024,0.016,0.046,0.016,0.072
	v6.879c0,0.562-0.455,1.018-1.018,1.018h-1.547c-0.562,0-1.018-0.455-1.018-1.018v-6.879c0-0.026,0.014-0.048,0.016-0.072h-0.336
	c-0.729,0-1.32-0.59-1.32-1.322v-4.766c0-0.729,0.592-1.32,1.32-1.32h4.223c0.729,0,1.318,0.592,1.318,1.32V28.732z M40.066,28.732
	c0,0.732-0.592,1.322-1.32,1.322h-0.334c0.002,0.024,0.014,0.046,0.014,0.072v6.879c0,0.562-0.457,1.018-1.018,1.018h-1.547
	c-0.562,0-1.018-0.455-1.018-1.018v-6.879c0-0.026,0.012-0.048,0.014-0.072h-0.334c-0.729,0-1.32-0.59-1.32-1.322v-4.766
	c0-0.729,0.592-1.32,1.32-1.32h4.223c0.729,0,1.32,0.592,1.32,1.32V28.732z"/>
</svg>
