<?xml version="1.0" encoding="utf-8"?>
<!-- Generator: Adobe Illustrator 16.0.0, SVG Export Plug-In . SVG Version: 6.00 Build 0)  -->
<!DOCTYPE svg PUBLIC "-//W3C//DTD SVG 1.1//EN" "http://www.w3.org/Graphics/SVG/1.1/DTD/svg11.dtd">
<svg version="1.1" id="Layer_1" xmlns="http://www.w3.org/2000/svg" xmlns:xlink="http://www.w3.org/1999/xlink" x="0px" y="0px"
	 width="56px" height="56px" viewBox="0 0 56 56" enable-background="new 0 0 56 56" xml:space="preserve">
<g>
	<rect x="25.319" y="26.252" width="1.52" height="1.805"/>
	<rect x="29.378" y="26.252" width="1.516" height="1.805"/>
	<rect x="33.433" y="26.252" width="1.516" height="1.805"/>
	<rect x="25.319" y="30.53" width="5.361" height="6.594"/>
	<rect x="33.433" y="30.53" width="1.516" height="5.1"/>
	<path d="M47.857,14.488L29.772,4.047c-0.975-0.563-2.57-0.563-3.545,0L8.143,14.488c-0.976,0.563-1.772,1.944-1.772,3.069v20.884
		c0,1.126,0.797,2.507,1.772,3.069l18.085,10.441c0.975,0.563,2.57,0.563,3.545,0l18.085-10.441
		c0.976-0.562,1.772-1.943,1.772-3.069V17.558C49.63,16.433,48.833,15.052,47.857,14.488z M37.347,38.451H18.653V23.944h18.693
		V38.451z M18.653,23.196l8.996-4.559v-1.871c-1.268-0.449-2.529,1.008-3.797,0.171c0-0.953,0-1.905,0-2.856
		c1.268,0.836,2.529-0.617,3.797-0.17v-0.363h0.701v5.092l8.996,4.557H18.653z"/>
	<rect x="21.263" y="26.252" width="1.52" height="1.805"/>
	<rect x="21.263" y="30.53" width="1.52" height="5.1"/>
</g>
</svg>
