<?xml version="1.0" encoding="utf-8"?>
<!-- Generator: Adobe Illustrator 16.0.0, SVG Export Plug-In . SVG Version: 6.00 Build 0)  -->
<!DOCTYPE svg PUBLIC "-//W3C//DTD SVG 1.1//EN" "http://www.w3.org/Graphics/SVG/1.1/DTD/svg11.dtd">
<svg version="1.1" id="Layer_1" xmlns="http://www.w3.org/2000/svg" xmlns:xlink="http://www.w3.org/1999/xlink" x="0px" y="0px"
	 width="56px" height="56px" viewBox="0 0 56 56" enable-background="new 0 0 56 56" xml:space="preserve">
<g>
	<path d="M19.13,22.05v11.484h6.688v0.51c0,0.205,0.102,0.383,0.256,0.511c0.1,0.077,0.227,0.126,0.381,0.126h3.141
		c0.152,0,0.279-0.049,0.383-0.126c0.152-0.103,0.254-0.306,0.254-0.511v-0.51h6.662L36.868,22.05H19.13z M29.767,33.996
		c0,0.185-0.161,0.347-0.347,0.347h-2.841c-0.185,0-0.346-0.162-0.346-0.347v-0.462h3.533V33.996z M36.186,32.802h-16.4V22.781h16.4
		V32.802z"/>
	<path d="M47.857,14.488L29.772,4.047c-0.975-0.563-2.57-0.563-3.545,0L8.143,14.488c-0.976,0.563-1.772,1.944-1.772,3.069v20.884
		c0,1.126,0.797,2.507,1.772,3.069l18.085,10.441c0.975,0.563,2.57,0.563,3.545,0l18.085-10.441
		c0.976-0.562,1.772-1.943,1.772-3.069V17.558C49.63,16.433,48.833,15.052,47.857,14.488z M37.913,35.601h-19.83
		c-0.84,0-1.557-0.688-1.557-1.557c0-0.279,0.23-0.51,0.512-0.51h1.045V22.05c0-0.588,0.461-1.047,1.047-1.047h17.764
		c0.816,0,1.045,0.586,1.045,1.047c0,0.459,0,11.484,0,11.484h1.047c0.281,0,0.51,0.23,0.486,0.51
		C39.472,34.887,38.78,35.601,37.913,35.601z"/>
</g>
</svg>
