<?xml version="1.0" encoding="utf-8"?>
<!-- Generator: Adobe Illustrator 16.0.0, SVG Export Plug-In . SVG Version: 6.00 Build 0)  -->
<!DOCTYPE svg PUBLIC "-//W3C//DTD SVG 1.1//EN" "http://www.w3.org/Graphics/SVG/1.1/DTD/svg11.dtd">
<svg version="1.1" id="Layer_1" xmlns="http://www.w3.org/2000/svg" xmlns:xlink="http://www.w3.org/1999/xlink" x="0px" y="0px"
	 width="56px" height="56px" viewBox="0 0 56 56" enable-background="new 0 0 56 56" xml:space="preserve">
<g>
	<path d="M26.113,24.771c0,0.191,0.062,0.465,0.295,0.697c0.189,0.189,0.506,0.379,1.012,0.443v-2.488
		C26.492,23.592,26.113,24.203,26.113,24.771z"/>
	<path d="M29.234,29.496v2.574c0.885-0.168,1.309-0.613,1.309-1.287c0-0.359-0.086-0.676-0.297-0.885
		C29.994,29.625,29.594,29.539,29.234,29.496z"/>
	<path d="M47.857,14.488L29.771,4.047c-0.975-0.562-2.568-0.562-3.545,0L8.143,14.488c-0.975,0.562-1.773,1.944-1.773,3.07v20.883
		c0,1.125,0.799,2.507,1.773,3.07l18.084,10.441c0.977,0.562,2.57,0.562,3.545,0l18.086-10.441c0.975-0.563,1.771-1.945,1.771-3.07
		V17.559C49.629,16.433,48.832,15.051,47.857,14.488z M29.656,35.318v2.383h-2.658v-2.277c-2.066-0.064-3.775-0.549-5.168-1.984
		l2.363-2.361c0.76,0.76,2.047,1.033,3.227,1.055V29.35l-0.822-0.105c-1.328-0.17-2.34-0.633-3.016-1.328
		c-0.695-0.719-1.033-1.73-1.033-3.018c0-2.445,1.645-4.324,4.449-4.682v-1.92h2.658v1.877c1.771,0.105,3.164,0.654,4.281,1.773
		l-2.32,2.32c-0.654-0.654-1.75-0.824-2.383-0.865v2.637l0.863,0.125c1.352,0.191,2.32,0.611,2.953,1.244
		c0.803,0.781,1.119,1.898,1.119,3.291C34.17,33.336,32.209,34.918,29.656,35.318z"/>
</g>
</svg>
