<?xml version="1.0" encoding="utf-8"?>
<!-- Generator: Adobe Illustrator 16.0.0, SVG Export Plug-In . SVG Version: 6.00 Build 0)  -->
<!DOCTYPE svg PUBLIC "-//W3C//DTD SVG 1.1//EN" "http://www.w3.org/Graphics/SVG/1.1/DTD/svg11.dtd">
<svg version="1.1" id="Layer_1" xmlns="http://www.w3.org/2000/svg" xmlns:xlink="http://www.w3.org/1999/xlink" x="0px" y="0px"
	 width="56px" height="56px" viewBox="0 0 56 56" enable-background="new 0 0 56 56" xml:space="preserve">
<path d="M47.858,14.489L29.772,4.048c-0.975-0.563-2.569-0.563-3.545,0L8.144,14.489c-0.976,0.562-1.773,1.943-1.773,3.069v20.884
	c0,1.125,0.798,2.506,1.773,3.069l18.084,10.441c0.976,0.563,2.57,0.563,3.545,0l18.086-10.441c0.975-0.563,1.771-1.944,1.771-3.069
	V17.559C49.63,16.433,48.833,15.052,47.858,14.489z M20.338,34.231l-1.857-3.266l-0.53,0.58v2.686h-2.719V22.427h2.719v6.001
	l2.405-3.116h3.266l-3.283,3.697l3.366,5.223H20.338z M37.056,34.231h-2.72v-5.339c0-1.028-0.729-1.228-1.094-1.228
	s-1.095,0.199-1.095,1.228v5.339h-2.72v-5.339c0-1.028-0.729-1.228-1.094-1.228c-0.365,0-1.095,0.199-1.095,1.228v5.339h-2.719
	v-8.92h2.652v0.729c0.548-0.547,1.36-0.829,2.073-0.829c0.879,0,1.592,0.282,2.172,0.945c0.779-0.68,1.492-0.945,2.521-0.945
	c0.846,0,1.657,0.282,2.139,0.764c0.763,0.763,0.979,1.607,0.979,2.553V34.231z M42.77,27.278v1.432h-4.429v-1.432l2.495-2.707
	c0.251-0.27,0.349-0.443,0.349-0.734c0-0.377-0.213-0.638-0.619-0.638c-0.291,0-0.639,0.135-0.639,0.666h-1.586
	c0-1.354,1.024-2.097,2.225-2.097c1.275,0,2.204,0.782,2.204,2.078c0,0.725-0.3,1.111-0.851,1.692l-1.645,1.739H42.77z"/>
</svg>
