<?xml version="1.0" encoding="utf-8"?>
<!-- Generator: Adobe Illustrator 16.0.0, SVG Export Plug-In . SVG Version: 6.00 Build 0)  -->
<!DOCTYPE svg PUBLIC "-//W3C//DTD SVG 1.1//EN" "http://www.w3.org/Graphics/SVG/1.1/DTD/svg11.dtd">
<svg version="1.1" id="Layer_1" xmlns="http://www.w3.org/2000/svg" xmlns:xlink="http://www.w3.org/1999/xlink" x="0px" y="0px"
	 width="56px" height="56px" viewBox="0 0 56 56" enable-background="new 0 0 56 56" xml:space="preserve">
<g>
	<path d="M36.071,29.791c-0.616,0.143-1.209,0.369-1.759,0.668c-0.53,0.291-0.987,0.656-1.358,1.088
		c-0.314,0.367-0.467,0.801-0.467,1.326c0,0.195,0.037,0.334,0.112,0.473c0.095,0.172,0.216,0.324,0.37,0.461
		c0.157,0.139,0.338,0.254,0.537,0.342c0.548,0.24,1.055,0.113,1.525-0.07c0.34-0.133,0.653-0.309,0.934-0.521
		c0.288-0.219,0.535-0.455,0.734-0.701c0.15-0.188,0.264-0.361,0.336-0.523l-0.035-2.717C36.712,29.656,36.401,29.715,36.071,29.791
		z"/>
	<path d="M47.857,14.488L29.772,4.047c-0.975-0.562-2.57-0.562-3.545,0L8.143,14.488c-0.976,0.562-1.772,1.945-1.772,3.07v20.883
		c0,1.125,0.797,2.508,1.772,3.07l18.085,10.441c0.975,0.562,2.57,0.562,3.545,0l18.085-10.441c0.976-0.562,1.772-1.945,1.772-3.07
		V17.559C49.63,16.434,48.833,15.051,47.857,14.488z M43.838,32.814c-0.212,0.322-0.462,0.664-0.765,1.041
		c-0.313,0.389-0.641,0.754-0.973,1.084c-0.369,0.334-0.719,0.615-1.069,0.865c-0.457,0.328-0.929,0.494-1.402,0.494
		c-0.362,0-0.71-0.09-1.034-0.27c-0.29-0.162-0.548-0.373-0.768-0.625c-0.124-0.141-0.235-0.291-0.333-0.449
		c-0.289,0.236-0.608,0.457-0.956,0.66c-0.779,0.453-1.625,0.684-2.515,0.684c-0.431,0-0.864-0.092-1.288-0.273
		c-0.406-0.174-0.777-0.408-1.104-0.695c-0.218-0.193-0.401-0.414-0.568-0.646c-0.114,0.135-0.228,0.271-0.346,0.393
		c-0.345,0.354-0.72,0.643-1.115,0.859c-0.441,0.24-0.904,0.363-1.376,0.363h-0.119c-0.325,0-0.661-0.078-0.998-0.234
		c-0.304-0.141-0.583-0.324-0.833-0.545c-0.263-0.23-0.482-0.508-0.65-0.824c-0.184-0.342-0.277-0.699-0.277-1.059v-2.008
		c-0.104,0.145-0.211,0.285-0.321,0.424c-0.702,0.877-1.467,1.633-2.274,2.248c-0.812,0.617-1.645,1.1-2.473,1.434
		c-0.85,0.34-1.621,0.521-2.292,0.539l-0.259,0.002c-0.832,0-1.615-0.162-2.326-0.482c-0.703-0.314-1.316-0.742-1.824-1.268
		c-0.502-0.52-0.903-1.111-1.192-1.762c-0.295-0.664-0.444-1.357-0.444-2.062c0-0.875,0.135-1.781,0.398-2.695
		c0.264-0.906,0.652-1.805,1.156-2.67c0.502-0.861,1.117-1.686,1.827-2.445c0.716-0.766,1.549-1.445,2.476-2.018
		c0.921-0.57,1.945-1.029,3.045-1.365c1.396-0.426,2.938-0.561,4.566-0.484c0.354,0.018,0.728,0.061,1.109,0.129
		c0.35,0.043,0.65,0.258,0.783,0.586c0.068,0.17,0.102,0.334,0.102,0.49v13.359c0,0.041,0.007,0.098,0.055,0.178
		c0.055,0.092,0.121,0.168,0.202,0.229c0.104,0.078,0.22,0.141,0.343,0.188c0.109,0.041,0.215,0.061,0.317,0.061
		c0.05-0.016,0.11-0.031,0.177-0.045c0.136-0.055,0.281-0.143,0.433-0.264c0.19-0.15,0.38-0.336,0.562-0.553
		c0.188-0.223,0.373-0.477,0.551-0.756c0.164-0.262,0.316-0.523,0.457-0.785c0.043-0.131,0.105-0.229,0.172-0.309
		c0.146-0.436,0.365-0.838,0.656-1.201c0.537-0.67,1.201-1.223,1.977-1.643c0.746-0.402,1.538-0.703,2.354-0.891
		c0.807-0.188,1.524-0.283,2.133-0.283h0.167c0.104,0,0.249,0.023,0.38,0.066c0.077,0.016,0.154,0.043,0.232,0.082
		c0.077,0.039,0.146,0.092,0.205,0.154c0.059,0.061,0.109,0.145,0.147,0.236c0.08,0.119,0.124,0.262,0.124,0.406l0.021,3.785
		c0.031,0.082,0.049,0.164,0.049,0.246v0.121c0,0.076-0.012,0.15-0.035,0.221l0.035,0.619c0,0.121,0.018,0.203,0.055,0.291
		c0.041,0.104,0.1,0.199,0.17,0.285c0.072,0.086,0.148,0.154,0.234,0.209c0.03,0.033,0.115,0.014,0.311-0.119
		c0.241-0.164,0.512-0.379,0.804-0.643c0.22-0.221,0.476-0.518,0.729-0.852c0.268-0.352,0.499-0.678,0.697-0.984
		c0.018-0.025,0.036-0.051,0.056-0.074c0.155-0.219,0.356-0.309,0.479-0.346c0.24-0.068,0.447-0.072,0.645-0.012
		c0.103,0.016,0.201,0.055,0.291,0.121c0.303,0.219,0.469,0.529,0.469,0.877C44.058,32.428,43.979,32.641,43.838,32.814z"/>
	<path d="M24.434,21.031c-1.067,0-2.075,0.141-2.996,0.422c-0.927,0.281-1.786,0.67-2.553,1.158
		c-0.771,0.488-1.465,1.062-2.064,1.705c-0.604,0.65-1.126,1.346-1.55,2.068c-0.421,0.715-0.742,1.461-0.953,2.213
		s-0.318,1.482-0.318,2.176c0,0.406,0.091,0.803,0.278,1.211c0.192,0.418,0.46,0.801,0.796,1.135
		c0.332,0.334,0.737,0.607,1.202,0.816c0.458,0.207,0.941,0.307,1.479,0.307h0.167c0.486-0.025,1.131-0.213,1.879-0.555
		c0.766-0.35,1.532-0.859,2.278-1.518c0.743-0.656,1.424-1.479,2.021-2.447c0.574-0.934,0.979-2.016,1.203-3.215v-0.697
		c0-0.398,0.004-1.018,0.012-1.855l0.029-2.875c-0.061-0.006-0.119-0.012-0.178-0.018C24.927,21.043,24.683,21.031,24.434,21.031z"
		/>
</g>
</svg>
