<?xml version="1.0" encoding="utf-8"?>
<!-- Generator: Adobe Illustrator 16.0.0, SVG Export Plug-In . SVG Version: 6.00 Build 0)  -->
<!DOCTYPE svg PUBLIC "-//W3C//DTD SVG 1.1//EN" "http://www.w3.org/Graphics/SVG/1.1/DTD/svg11.dtd">
<svg version="1.1" id="Layer_1" xmlns="http://www.w3.org/2000/svg" xmlns:xlink="http://www.w3.org/1999/xlink" x="0px" y="0px"
	 width="56px" height="56px" viewBox="0 0 56 56" enable-background="new 0 0 56 56" xml:space="preserve">
<path d="M47.857,14.488L29.771,4.047c-0.975-0.562-2.568-0.562-3.545,0L8.143,14.488c-0.975,0.564-1.773,1.945-1.773,3.07v20.883
	c0,1.127,0.799,2.508,1.773,3.07l18.084,10.441c0.977,0.562,2.57,0.562,3.545,0l18.086-10.441c0.975-0.562,1.771-1.943,1.771-3.07
	V17.559C49.629,16.434,48.832,15.053,47.857,14.488z M28,37.432c-3.385,0-6.129-2.744-6.129-6.129c0-3.387,1.703-6.305,6.129-12.732
	c4.426,6.428,6.129,9.346,6.129,12.732C34.129,34.688,31.387,37.432,28,37.432z"/>
</svg>
