<?xml version="1.0" encoding="utf-8"?>
<!-- Generator: Adobe Illustrator 16.0.0, SVG Export Plug-In . SVG Version: 6.00 Build 0)  -->
<!DOCTYPE svg PUBLIC "-//W3C//DTD SVG 1.1//EN" "http://www.w3.org/Graphics/SVG/1.1/DTD/svg11.dtd">
<svg version="1.1" id="Layer_1" xmlns="http://www.w3.org/2000/svg" xmlns:xlink="http://www.w3.org/1999/xlink" x="0px" y="0px"
	 width="56px" height="56px" viewBox="0 0 56 56" enable-background="new 0 0 56 56" xml:space="preserve">
<g>
	<path d="M28,17.883c-5.58,0-10.119,4.539-10.119,10.117c0,5.58,4.539,10.119,10.119,10.119c5.58,0,10.119-4.539,10.119-10.119
		C38.119,22.422,33.58,17.883,28,17.883z M32.564,32.963c-0.172,0.129-0.373,0.19-0.572,0.19c-0.291,0-0.58-0.132-0.768-0.384
		c-0.811-1.085-2.039-1.707-3.369-1.707c-1.33,0-2.559,0.622-3.371,1.707c-0.314,0.424-0.914,0.51-1.34,0.193
		c-0.422-0.316-0.51-0.916-0.193-1.34c1.178-1.573,2.965-2.475,4.904-2.475c1.939,0,3.726,0.901,4.902,2.475
		C33.074,32.047,32.988,32.646,32.564,32.963z M22.504,25.43l0.764-0.764l-0.764-0.763c-0.32-0.32-0.32-0.841,0-1.161
		c0.321-0.32,0.84-0.32,1.161,0l0.765,0.764l0.765-0.764c0.321-0.32,0.841-0.32,1.161,0s0.32,0.841,0,1.162l-0.765,0.764
		l0.765,0.764c0.32,0.32,0.32,0.84,0,1.161c-0.16,0.16-0.37,0.24-0.58,0.24c-0.211,0-0.421-0.08-0.581-0.24l-0.765-0.765
		l-0.765,0.764c-0.159,0.16-0.37,0.24-0.581,0.24c-0.209,0-0.42-0.08-0.58-0.24C22.184,26.271,22.184,25.751,22.504,25.43z
		 M33.494,26.593c-0.16,0.16-0.369,0.24-0.58,0.24c-0.209,0-0.42-0.08-0.58-0.24l-0.764-0.765l-0.766,0.764
		c-0.16,0.16-0.371,0.24-0.58,0.24s-0.42-0.08-0.58-0.24c-0.32-0.321-0.32-0.841,0-1.161l0.764-0.764l-0.764-0.764
		c-0.32-0.32-0.32-0.841,0-1.161s0.84-0.32,1.16,0l0.766,0.765l0.764-0.765c0.322-0.32,0.842-0.32,1.16,0
		c0.322,0.32,0.32,0.841,0,1.161l-0.764,0.765l0.764,0.764C33.816,25.752,33.816,26.272,33.494,26.593z"/>
	<path d="M47.857,14.489L29.771,4.048c-0.974-0.563-2.569-0.563-3.544,0L8.143,14.489c-0.976,0.563-1.773,1.944-1.773,3.069v20.884
		c0,1.126,0.798,2.507,1.773,3.069l18.084,10.441c0.976,0.563,2.57,0.563,3.544,0l18.086-10.441
		c0.975-0.562,1.771-1.943,1.771-3.069V17.559C49.629,16.434,48.832,15.053,47.857,14.489z M28,40.421
		c-6.85,0-12.422-5.572-12.422-12.421c0-6.848,5.572-12.42,12.422-12.42c6.847,0,12.419,5.572,12.419,12.42
		C40.42,34.849,34.848,40.421,28,40.421z"/>
</g>
</svg>
