<?xml version="1.0" encoding="utf-8"?>
<!-- Generator: Adobe Illustrator 16.0.0, SVG Export Plug-In . SVG Version: 6.00 Build 0)  -->
<!DOCTYPE svg PUBLIC "-//W3C//DTD SVG 1.1//EN" "http://www.w3.org/Graphics/SVG/1.1/DTD/svg11.dtd">
<svg version="1.1" id="Layer_1" xmlns="http://www.w3.org/2000/svg" xmlns:xlink="http://www.w3.org/1999/xlink" x="0px" y="0px"
	 width="56px" height="56px" viewBox="0 0 56 56" enable-background="new 0 0 56 56" xml:space="preserve">
<path d="M47.857,14.489L29.771,4.048c-0.975-0.564-2.568-0.564-3.545,0L8.143,14.489c-0.975,0.562-1.773,1.943-1.773,3.068v20.885
	c0,1.125,0.799,2.506,1.773,3.068l18.084,10.441c0.977,0.564,2.57,0.564,3.545,0l18.086-10.441c0.975-0.562,1.771-1.943,1.771-3.068
	V17.558C49.629,16.433,48.832,15.052,47.857,14.489z M38.83,26.421H26.455v0.037c0,0.336-0.092,0.652-0.248,0.928h12.096
	c0,3.031-2.412,5.613-5.793,6.596v4.988h-9.127v-6.516c-1.408-1.072-2.369-2.516-2.639-4.133c-0.891-0.154-1.574-0.93-1.574-1.863
	v-7.535c0-1.041,0.852-1.893,1.893-1.893h3.498c1.043,0,1.895,0.852,1.895,1.893v5.566H38.83V26.421z"/>
</svg>
