<?xml version="1.0" encoding="utf-8"?>
<!-- Generator: Adobe Illustrator 19.1.0, SVG Export Plug-In . SVG Version: 6.00 Build 0)  -->
<svg version="1.1" id="Layer_1" xmlns="http://www.w3.org/2000/svg" xmlns:xlink="http://www.w3.org/1999/xlink" x="0px" y="0px"
	 viewBox="0 0 56 56" enable-background="new 0 0 56 56" xml:space="preserve">
<g>
	<path d="M52,25.5L35.8,9.3c-1.4-1.4-3.7-1.4-5,0c-1.4,1.4-1.4,3.6,0,5l10.1,10.1H6.6C4.6,24.4,3,26,3,28s1.6,3.6,3.6,3.6h34.3
		L30.7,41.7c-1.4,1.4-1.4,3.7,0,5c0.7,0.7,1.6,1,2.5,1c0.9,0,1.8-0.3,2.5-1L52,30.5C53.3,29.1,53.3,26.9,52,25.5z"/>
</g>
</svg>
