<?xml version="1.0" encoding="utf-8"?>
<!-- Generator: Adobe Illustrator 16.0.0, SVG Export Plug-In . SVG Version: 6.00 Build 0)  -->
<!DOCTYPE svg PUBLIC "-//W3C//DTD SVG 1.1//EN" "http://www.w3.org/Graphics/SVG/1.1/DTD/svg11.dtd">
<svg version="1.1" id="Layer_1" xmlns="http://www.w3.org/2000/svg" xmlns:xlink="http://www.w3.org/1999/xlink" x="0px" y="0px"
	 width="56px" height="56px" viewBox="0 0 56 56" enable-background="new 0 0 56 56" xml:space="preserve">
<path d="M47.857,14.489L29.772,4.047c-0.975-0.562-2.57-0.562-3.545,0L8.143,14.489c-0.976,0.562-1.772,1.944-1.772,3.07v20.882
	c0,1.125,0.797,2.507,1.772,3.07l18.085,10.441c0.975,0.562,2.57,0.562,3.545,0l18.085-10.441c0.976-0.563,1.772-1.945,1.772-3.07
	V17.559C49.63,16.433,48.833,15.051,47.857,14.489z M20.897,16.15c1.473,0,2.668,1.195,2.668,2.67c0,1.473-1.195,2.668-2.668,2.668
	c-1.475,0-2.67-1.193-2.67-2.668S19.423,16.15,20.897,16.15z M16.464,28.27v-0.989l-1.336-0.458
	c-0.27-0.092-0.473-0.316-0.539-0.595c-0.062-0.276,0.018-0.568,0.217-0.771l1.658-1.688v-0.743c0-0.44,0.355-0.799,0.797-0.799
	h1.488c-0.283,1.175-1.57,6.49-1.652,6.825C16.735,28.976,16.464,28.655,16.464,28.27z M20.601,38.617
	c0,0.656-0.531,1.188-1.186,1.188c-0.656,0-1.186-0.532-1.186-1.188v-7.708h2.371V38.617z M23.565,38.617
	c0,0.656-0.531,1.188-1.188,1.188c-0.654,0-1.184-0.532-1.184-1.188v-7.708h2.371V38.617z M24.159,30.315h-6.525v-1.13
	c0.074-0.292,1.281-5.284,1.729-7.14c0.459-0.182,0.979-0.278,1.535-0.278c0.555,0,1.074,0.097,1.533,0.278
	c0.447,1.856,1.656,6.851,1.729,7.141V30.315z M26.665,26.825l-1.121,0.386v1.06c0,0.443-0.359,0.798-0.799,0.798h-0.047
	c-0.082-0.333-1.371-5.667-1.654-6.841h1.701c0.439,0,0.799,0.358,0.799,0.799v0.957l1.443,1.474
	c0.199,0.203,0.281,0.495,0.217,0.773C27.138,26.506,26.935,26.731,26.665,26.825z M30.726,16.899
	c0.021,0.315,0.416,0.929,0.971,0.806c0.557-0.125,0.809-0.539,0.641-1.204c-0.182-0.725-0.314-1.794,1.211-2.214
	c1.668-0.458,2.209,0.912,2.023,1.418c0,0-0.471-0.059-0.955,0.006c-0.457,0.058-0.766,0.456-1.047,0.928
	c0.434-0.306,0.963-0.488,1.533-0.488c1.475,0,2.67,1.195,2.67,2.67c0,1.473-1.195,2.668-2.67,2.668c-1.477,0-2.67-1.193-2.67-2.668
	c0-0.239,0.037-0.47,0.094-0.69c-0.133,0.103-0.279,0.182-0.447,0.213C30.897,18.574,30.351,17.315,30.726,16.899z M29.335,26.823
	c-0.27-0.093-0.475-0.316-0.539-0.595c-0.066-0.277,0.018-0.568,0.217-0.771l1.656-1.688v-0.743c0-0.44,0.359-0.799,0.795-0.799
	h1.488l-1.658,6.822c-0.357-0.08-0.625-0.397-0.625-0.779v-0.986L29.335,26.823z M34.806,38.617c0,0.656-0.529,1.188-1.186,1.188
	c-0.654,0-1.188-0.532-1.188-1.188v-4.358h0.002h2.371V38.617z M37.772,38.617c0,0.656-0.531,1.188-1.188,1.188
	c-0.654,0-1.186-0.532-1.186-1.188h0.002v-4.358h2.371V38.617z M30.737,33.667l2.832-11.622c0.455-0.182,0.979-0.278,1.533-0.278
	c0.559,0,1.076,0.097,1.535,0.278l2.828,11.622H30.737z M40.872,26.823l-1.125,0.387v1.061c0,0.441-0.355,0.797-0.797,0.797h-0.031
	l-1.668-6.84h1.699c0.441,0,0.797,0.358,0.797,0.799v0.957l1.447,1.474c0.201,0.203,0.281,0.495,0.217,0.771
	C41.343,26.506,41.142,26.73,40.872,26.823z"/>
</svg>
