<?xml version="1.0" encoding="utf-8"?>
<!-- Generator: Adobe Illustrator 16.0.0, SVG Export Plug-In . SVG Version: 6.00 Build 0)  -->
<!DOCTYPE svg PUBLIC "-//W3C//DTD SVG 1.1//EN" "http://www.w3.org/Graphics/SVG/1.1/DTD/svg11.dtd">
<svg version="1.1" id="Layer_1" xmlns="http://www.w3.org/2000/svg" xmlns:xlink="http://www.w3.org/1999/xlink" x="0px" y="0px"
	 width="56px" height="56px" viewBox="0 0 56 56" enable-background="new 0 0 56 56" xml:space="preserve">
<path d="M47.858,14.488L29.772,4.047c-0.975-0.563-2.569-0.563-3.545,0L8.144,14.488c-0.976,0.563-1.773,1.944-1.773,3.069v20.884
	c0,1.126,0.798,2.507,1.773,3.069l18.084,10.441c0.976,0.563,2.57,0.563,3.545,0l18.086-10.441c0.975-0.562,1.771-1.943,1.771-3.069
	V17.558C49.63,16.433,48.833,15.052,47.858,14.488z M31.341,19.003h2.504V16.5h2.252v2.503h2.504v2.253h-2.504v2.503h-2.252v-2.503
	h-2.504V19.003z M24.413,30.462c0-1.101,0.846-1.993,1.889-1.993h10.572c1.043,0,1.889,0.893,1.889,1.993v0.08h-14.35V30.462z
	 M17.239,29.722v-0.137c0-1.057,0.936-1.913,2.092-1.913h1.793c1.156,0,2.094,0.856,2.094,1.913v0.137v0.82h-5.979V29.722z
	 M42.349,36.44h-2.391v-3.188H16.042v3.188h-2.391V25.28h2.391v5.979h23.916v-1.992h2.391V36.44z"/>
</svg>
