<?xml version="1.0" encoding="utf-8"?>
<!-- Generator: Adobe Illustrator 19.1.0, SVG Export Plug-In . SVG Version: 6.00 Build 0)  -->
<svg version="1.1" id="Layer_1" xmlns="http://www.w3.org/2000/svg" xmlns:xlink="http://www.w3.org/1999/xlink" x="0px" y="0px"
	 viewBox="0 0 56 56" enable-background="new 0 0 56 56" xml:space="preserve">
<path d="M47,13.9L28.4,3.1c-0.3-0.1-0.6-0.1-0.8,0L9,13.9c-0.3,0.1-0.4,0.4-0.4,0.7v21.5c0,0.3,0.1,0.6,0.4,0.7l18.6,10.7
	c0,0,0.1,0,0.1,0.1l9.2,5.3C37,53,37.2,53,37.3,53s0.3,0,0.4-0.1l9.3-5.4c0.3-0.1,0.4-0.4,0.4-0.7V36.1l0,0V14.6
	C47.4,14.3,47.3,14,47,13.9z M35.7,41.4l-6.9,4v-8L35.7,41.4z M29.6,36l7.6-4.4l7.7,4.4l-7.6,4.4L29.6,36z M37.7,30
	c-0.3-0.1-0.6-0.1-0.8,0l-8.2,4.7v-8.9l17-9.8v18.6L37.7,30z M36.5,42.8v7.9l-6.9-4L36.5,42.8z M28,4.8l16.9,9.8L28,24.4l-16.9-9.8
	L28,4.8z M10.3,16l17,9.8V36v9.4l-17-9.8C10.3,35.6,10.3,16,10.3,16z M38.2,50.7v-8.8l7.6-4.4v8.8L38.2,50.7z"/>
</svg>
